# xmcd
# 
# Track frame offsets:
#     150
#     11137
#     23769
#     35165
#     48197
#     58240
#     72547
#     84350
#     95222
#     124007
#     137352
#     150545
#     206980
#     217512
#     229167
#     243980
#     255990
#     269497
#     289717
# 
# Disc length: 4024
# 
# Revision: 4
# Processed by: cddbd v1.5.2PL0 Copyright (c) Steve Scherf et al.
# Submitted via: fre:ac v1.0.17
# 
DISCID=0f0fb613
DTITLE=Various Artist - Blues and Jazz
DYEAR=2000
DGENRE=Blues
TTITLE0=John Lee Hooker - Boom, Boom, Boom
TTITLE1=Elmore James - Dust my Broom
TTITLE2=Little Richard - Need Him
TTITLE3=Ted Taylor - She's a Winner
TTITLE4=John Lee Hooker - Dimples
TTITLE5=Ray Charles - Walkin and Talkin
TTITLE6=Lighthing Hopkins - Lonesome Dof
TTITLE7=Jimmy Reed - Good Lover
TTITLE8=All Jarreau - Rainbow in your Eyes
TTITLE9=Count Basle - One o'clock Jump
TTITLE10=Duke Ellington - Maoon Over Dixie
TTITLE11=George Benson - All Blues
TTITLE12=Charlie Parker - Cool Blues
TTITLE13=Ella Fitzgerald - A Tisket, A Tasket
TTITLE14=Billie Holiday - Georgia on My Mind
TTITLE15=Fats Waller - Haneysuckler Rose
TTITLE16=Charlie Parker - Moose The Mooche
TTITLE17=Ella Fitzgerald - I Want to Be Happy
TTITLE18=Count Basie - Swingin' The Blues
EXTD=Blues and Jazz
EXTT0=
EXTT1=
EXTT2=
EXTT3=
EXTT4=
EXTT5=
EXTT6=
EXTT7=
EXTT8=
EXTT9=
EXTT10=
EXTT11=
EXTT12=
EXTT13=
EXTT14=
EXTT15=
EXTT16=
EXTT17=
EXTT18=
PLAYORDER=
